<?xml version="1.0" encoding="utf-8"?>
<!-- Generator: Adobe Illustrator 24.0.1, SVG Export Plug-In . SVG Version: 6.00 Build 0)  -->
<svg version="1.0" id="Layer_1" xmlns="http://www.w3.org/2000/svg" xmlns:xlink="http://www.w3.org/1999/xlink" x="0px" y="0px"
	 viewBox="0 0 4118.3 459.4" enable-background="new 0 0 4118.3 459.4" xml:space="preserve">
<path d="M2893.8,58.3c-13.7,4.9-28.3,18.2-44.8,40.7c-39.1,54.2-181.6,256-182.7,259.2c-1.1,2.9,5.4,3.4,52.6,3.4h54l70.4-99.7
	c38.7-54.7,70.4-99.7,70.9-100.1c0.2-0.4,14.4,19.8,31.5,45s36,52.4,41.8,61c5.8,8.3,10.8,15.3,10.8,15.7c0,0.2-28.8,0.2-63.7-0.2
	l-63.9-0.7l-26.3,36.2c-14.6,20-27,37.8-27.7,39.6c-0.9,2.7,24.1,3.1,172.3,3.1c95.4,0,173.5-0.7,173.5-1.3
	c0-4.3-189.7-276.1-199.6-285.7c-7.4-7.4-15.3-12.8-22.3-15.3C2928.9,55.1,2904.2,54.7,2893.8,58.3z"/>
<path fill="#D51E4A" d="M960,61.4c-45.2,5.2-72.2,11.9-100.1,25.6c-51.1,24.5-73.3,63.9-73.3,128.2c0,32.4,4.7,54.9,16.2,76.5
	c29.2,55.1,104.4,81.7,220.3,78.1c112.9-3.6,173-34.9,195.1-101.5c5.4-16.6,6.1-21.4,6.1-53.1s-0.7-36.4-6.1-53.1
	c-17.5-53.3-59.4-83.2-134.3-96.5C1063.3,62.1,979.6,59.2,960,61.4z M1081.5,143.8c25.2,6.5,36.7,15.3,45.4,34.4
	c4.3,9.7,4.9,15.1,5.2,37.1c0,24.1-0.5,26.8-6.5,38.9c-14.4,29.5-40,37.6-119.5,37.3c-65.5,0-89.3-4.3-107.1-19.6
	c-16.2-13.9-18.9-22-18.9-56.7c0-27,0.4-31.5,4.9-39.6c10.3-19.3,27.9-29.9,58-34.4C964.1,137.9,1066.7,139.9,1081.5,143.8z"/>
<path d="M2344.8,96.7c-16,20.5-29.5,38.2-29.9,39.6c-0.7,1.8,37.8,2.5,136.1,2.5c128.2,0,137.5,0.4,146,4.3
	c13.5,6.1,18.9,14.2,18.9,28.1c0,14.8-6.1,25-18.7,30.6c-9,4.3-16.2,4.5-147.1,4.5h-137.9v77.6v77.6h46.1h46.1v-39.4v-39.4h93.1
	c70.9,0,97.2-0.7,109.8-3.1c62.1-11.9,98.1-46.6,102.4-98.3c4.7-55.3-29-97.6-91.3-115.2c-16.2-4.5-22.9-4.7-130.7-5.6l-113.8-0.7
	L2344.8,96.7z"/>
<path d="M3245.3,75.1c-23.2,29.7-46.6,60.5-46.6,62.1c0,0.7,64.1,1.8,142.4,2l142.2,0.7l9.2,5.2c11.5,6.7,16.6,15.3,16.6,28.1
	s-6.1,20.7-21.1,27.7l-11.5,5.4h-139.9h-140.2v77.6v77.6h46.1h46.1l0.4-40l0.7-39.8l71.1-0.7l71.3-0.4l34,40.5l34.2,40.5h62.1h61.9
	l-18-19.8c-9.9-10.8-31.7-33.1-48.4-49.5l-30.1-29.7l9.2-2.5c44.5-11.9,74.7-60.1,67.3-107.8c-7.6-49.3-44.3-79-110.2-88.9
	C3477,60.7,3448,60,3364.7,60h-107.3L3245.3,75.1z"/>
<path d="M3657.7,210.8v150.7l46.8-0.4l46.6-0.7l-0.2-63.4v-63.7l6.1,5.2c3.4,2.7,36.2,31.5,73.1,63.9l67.3,59.2h69.7h69.7l-5.6-5.4
	c-9-8.5-159.7-127.8-178.6-141.1c-9.2-6.7-16.6-12.8-16.4-13.5c0.2-0.9,7.6-6.3,16.2-12.1c8.8-5.8,51.1-37.1,94.3-69.5l78.7-58.7
	l-67-0.7l-66.8-0.4l-49.9,42.1c-27.4,23.2-59.2,50.4-70.4,60.7l-20.7,18.7l1.3-60.7l1.1-60.7h-47.7h-47.5v150.5H3657.7z"/>
<path fill="#D51E4A" d="M179.3,65.9c-20.2,3.1-34.4,6.3-47.2,10.3C66,97.3,25.7,148.2,25.5,210.7c-0.2,26.1,3.1,40.5,14.8,65
	c7.4,15.3,12.8,22.7,27.4,37.6c15.7,15.7,22,20.2,42.1,29.9c41.6,20.2,47.5,21.1,154.3,22l92.5,1.1l29.5-38
	c16.2-20.7,29.5-38.5,29.5-39.4s-54-2-119.7-2.2L176,286l-13-6.1c-19.8-9.2-29.7-18.2-37.3-33.7c-17.1-34-3.1-74.2,31.9-92
	c19.8-10.3,27.2-11,115.6-11h83.7l29.2-38.2c16.2-20.9,29.5-38.7,29.5-39.4C415.6,64.3,188.1,64.8,179.3,65.9z"/>
<path fill="#D51E4A" d="M449.3,215.3V366l133.4-0.2h133.2l29.7-38.7l29.9-38.7l-117-0.7l-117-0.4V175.9V64.6h-46.1h-46.1V215.3z"/>
<path fill="#D51E4A" d="M1268.9,162.9c0.9,103,1.1,105.3,11.5,130c15.1,35.8,56.2,61,118.6,72.4c30.8,5.6,116.8,5.6,144.4,0
	c64.8-13,99-39.8,115.4-89.3c3.6-11,4-23.4,4.9-112l0.7-99.4h-47.2h-47.5v91.6c0,56.2-0.9,94.9-2.2,100.1
	c-3.1,10.8-11.7,21.1-22.3,26.3c-15.7,8.1-33.3,10.3-77.8,9.9c-65.7-0.2-89.5-7.2-100.6-29.2c-5.2-10.8-5.2-11.5-5.8-104.8
	l-0.7-93.8h-46.1H1268L1268.9,162.9z"/>
<path fill="#D51E4A" d="M1747.5,101.9c-15.5,20.5-28.3,38.2-28.8,39.4c-0.4,1.1,44.1,2,106.9,2c65.2,0,111.4,1.1,117.7,2.5
	c25.4,5.8,46.6,21.4,56.5,41.4c6.5,13,7,15.7,6.1,31.9c-1.3,29-13.7,46.6-41.8,59.8l-15.1,7.2l-69.1,0.7l-69.3,0.7v-55.3v-55.1
	l-46.6,0.4l-46.8,0.7l-0.7,94l-0.4,94l118.6-0.7c113.4-0.9,119.7-1.1,136.1-5.8c39.6-10.8,62.5-23.4,86.2-46.8
	c27.7-27.4,41.6-61,41.6-100.3c0-36.9-10.6-65-34.4-90.9c-23.2-25.2-47.7-39.1-87.1-49.9c-20.9-5.6-22.9-5.8-111.4-6.5l-90-0.7
	L1747.5,101.9z"/>
</svg>
