<?xml version="1.0" encoding="utf-8"?>
<!-- Generator: Adobe Illustrator 24.0.1, SVG Export Plug-In . SVG Version: 6.00 Build 0)  -->
<svg version="1.0" id="Layer_1" xmlns="http://www.w3.org/2000/svg" xmlns:xlink="http://www.w3.org/1999/xlink" x="0px" y="0px"
	 viewBox="0 0 595.3 595.3" enable-background="new 0 0 595.3 595.3" xml:space="preserve">
<g>
	<path fill="#D51D4A" d="M200.1,289.9c11.3,4.6,21.6,9.6,32.4,13c37.5,11.7,76.2,13.8,115.1,11.3c26.5-1.7,52.7-5.9,77.4-16.2
		c8.2-3.4,15.9-7.9,23.8-12c-48.7,21.1-99.6,21.3-151.4,19c-0.8-15.6,4-28,14.2-38.3c11.5-11.7,26-18.1,41.4-22.8
		c4.2-1.3,8.4-2.3,13-3.6c-0.9-0.7-1.2-1.1-1.5-1.2c-32.9-5.1-65.6-5.6-98.3,1.4c-1.9,0.4-4.8,0.5-5.8-0.6
		c-6.9-7.6-13.4-15.6-20.6-24.2c56.9-14.7,111.7-10.6,167.6,7.9c-2-1.5-2.3-1.8-2.7-2c-0.8-0.4-1.5-0.8-2.3-1.1
		c-52.8-22.6-107.4-26.8-163.3-14.7c-5.1,1.1-7.7,0-10.8-3.8c-29-35.4-57.2-71.3-70.3-116.4c0.1,15.3,4.1,29.6,10.2,43.5
		c11.2,25.8,28.6,47.5,46.1,69.1c22.3,27.4,44.1,55.2,66.6,82.4c6.1,7.4,6.1,14.4,2.6,23.1c-1.8-2.2-3.5-4.1-5-6.1
		C264.3,278.2,250,259,235.5,240c-21.3-28-43.2-55.4-63.8-83.8c-18.8-25.7-28.2-54.5-23.5-86.9c1.6-11-0.7-21.6-8.8-30
		c-9.7-10.1-23.2-7.7-28.9,5.1c-4.4,9.9-5.5,20.3-3.9,31c2.4,16.4,8.7,31.4,18.5,44.4c16.5,21.8,34.1,42.7,51.6,63.7
		c9.2,11.1,19.2,21.5,29.2,32.6c-14.7,8.2-30.1,14.5-37.9,30c-7.6,15-6.7,31.5-8,47.8c-18.1-6.1-28.9-6.2-41.4-0.8
		c-20.6,8.9-25.4,27.8-11.1,44.9c3.4,4.1,7.5,7.8,11.7,11.1c8.2,6.4,16.4,12.6,25,18.3c18,11.9,33.4,26.5,47.1,43
		c6.7,8.1,13.4,16.3,20.8,23.8c15.3,15.6,34,26,55,33.8c-0.6-1.1-0.6-1.5-0.9-1.7c-0.9-0.7-1.7-1.3-2.7-1.8
		c-38.9-24.8-61.2-59.7-65.2-105.9C196.2,335.4,197,312.4,200.1,289.9z"/>
	<path fill="#D51D4A" d="M219.7,318.4c-0.5,2.1-0.8,3.1-1,4.2c-3.8,26,0.7,51,10.1,75.3c6,15.6,15.6,28.8,29.6,38.2
		c15.6,10.5,31.7,11.2,47.9,1.2c11.9-7.3,20.8-17.8,26.8-30c13.2-27,32.6-47.5,58.6-62.6c13.3-7.7,23.7-19.3,35-32.2
		C357.3,339.3,289,337.4,219.7,318.4z"/>
	<path fill="#D51D4A" d="M112.9,368c-4.6,2.2-8.3,3.5-11.5,5.5c-13.2,8.1-26.7,15.7-39.1,24.9c-11.1,8.1-19.3,19.3-23.1,32.8
		c-5.9,21.1,1.3,39,14.7,55c18.8,22.4,43.2,36.9,69.7,47.9c74,30.7,150.5,36.6,228.7,20.1c14.1-3,27.8-7.4,41.8-11.2
		c-0.8-1.3-1.2-1.5-1.6-1.4c-54.6,11.3-109.4,12.6-164.4,3.7c-36.6-5.9-71.8-16.4-104.2-34.8c-17-9.7-32.5-21.3-43.5-37.9
		c-13.7-20.6-13-42.8,3-61.5c7.2-8.4,15.6-16.3,24.9-22.3c25.2-16.2,20.4-18,48.1,1.6c9.8,6.9,18,16.1,26.8,24.2
		c-1.8-2.8-3.7-5.9-5.8-8.8c-10.5-14.9-25.4-25-40.1-35.2c-10.8-7.5-21.9-14.7-31.6-23.5c-6-5.4-10.7-13.1-13.7-20.7
		c-7.1-17.8-0.5-32.1,17.5-38.8c8.3-3.1,17.4-4.2,26.1-6.2c0-0.5-0.1-1.1-0.1-1.6c-10.6,0.9-21.5,0.5-31.8,2.9
		c-18.7,4.4-28.4,21-25,40c2.7,15.2,10.9,27,22.6,36.5C104.5,362.3,108.3,364.7,112.9,368z"/>
	<path fill="#D51D4A" d="M278.4,23.2c-0.2-0.1-0.5-0.2-0.7-0.3c-4,16.6-9,33.1-11.9,50c-3.3,19-3.1,38.2,3.3,56.8
		c8.4,24.6,26.4,37.6,52.2,35c16.5-1.7,32.8-6.6,49-10.6c14.6-3.6,28.7-9.4,43.5-11.9c22.5-3.8,40.2,12.4,40.5,35.2
		c0.2,10.7-2.9,20.4-7.9,29.6c-13.6,24.6-35.1,40.4-59.5,52.7c-9.8,4.9-20.2,8.9-31.3,13.8c29.8-6,57.3-15,81.1-32.8
		c26.8-20,41.8-46.5,41.4-80.6c-0.3-27.8-17.7-47-45.2-51c-16.2-2.4-31.7,1.2-47,6c-19.9,6.3-39.5,13.6-59.6,19.1
		c-20.4,5.6-31.5-0.1-41.3-18.8c-6.1-11.6-9.9-24.1-9.7-37.2C275.5,60,277.3,41.6,278.4,23.2z"/>
	<path fill="#D51D4A" d="M443.2,310.5c-0.9,0.2-1.7,0.4-2.6,0.6c4.8,42.6-1.3,82.4-30.5,115.8c-30.3,34.7-71,38.7-113.5,36.8
		c52.7,13.9,127,5.1,153.3-82.4c9.4,7.8,19,14.4,26.9,22.7c23.2,24.2,23.8,53.3,2.3,79.2c-13.7,16.5-31.6,27.1-51.2,35
		c-2.1,0.8-4.1,1.7-6.2,2.6c2.8,0.4,5.3,0.1,7.8-0.4c29.6-5.9,55.7-18.1,74.8-42.4c19.6-24.9,18.6-53.4-2-77.4
		C489.9,386.1,474.1,376,457,368c-4.3-2-5.3-4.3-5.2-8.8c0.2-7.3,0.1-14.8-1.3-21.9C448.8,328.3,445.7,319.5,443.2,310.5z"/>
	<path fill="#D51D4A" d="M166.6,413.4c-0.5,1.8-1.1,3.5-1.5,5.3c-10.2,43.1,6.1,72.5,48.2,86.1c34.1,11,69.1,10.2,104.2,7.5
		c-8.8-0.7-17.6-1.1-26.4-1.8c-20.6-1.7-41-4.8-60.6-11.7c-22.3-7.8-41.6-19.7-53.4-41.2C169.6,443.8,167,429,166.6,413.4z"/>
	<path fill="#D51D4A" d="M200.1,289.9c-3,22.5-3.9,45.5-1.9,68.5c4.1,46.2,26.4,81.2,65.2,105.9c0.9,0.6,1.8,1.2,2.7,1.8
		c0.3,0.2,0.3,0.6,0.9,1.7c-21-7.8-39.7-18.2-55-33.8c-7.4-7.5-14.1-15.7-20.8-23.8c-13.7-16.5-29.1-31.1-47.1-43
		c-8.6-5.7-16.9-12-25-18.3c-4.2-3.3-8.3-7-11.7-11.1c-14.3-17.2-9.5-36.1,11.1-44.9c12.6-5.4,23.3-5.2,41.4,0.8
		c1.3-16.2,0.4-32.8,8-47.8c7.8-15.4,23.2-21.8,37.9-30c-10-11.1-20-21.6-29.2-32.6c-17.5-21-35.1-41.9-51.6-63.7
		c-9.8-12.9-16.1-28-18.5-44.4c-1.6-10.7-0.5-21.1,3.9-31c5.7-12.8,19.2-15.2,28.9-5.1c8.1,8.4,10.3,19,8.8,30
		c-4.6,32.5,4.8,61.2,23.5,86.9c20.7,28.4,42.6,55.8,63.8,83.8c14.5,19,28.7,38.2,43.1,57.4c1.5,2,3.2,3.9,5,6.1
		c3.4-8.7,3.5-15.7-2.6-23.1c-22.5-27.2-44.4-55-66.6-82.4c-17.5-21.6-34.9-43.3-46.1-69.1c-6-13.8-10-28.2-10.2-43.5
		c13.2,45.1,41.3,80.9,70.3,116.4c3.1,3.8,5.7,4.9,10.8,3.8c55.9-12.1,110.5-7.9,163.3,14.7c0.8,0.3,1.6,0.7,2.3,1.1
		c0.4,0.2,0.7,0.5,2.7,2c-55.9-18.5-110.7-22.6-167.6-7.9c7.3,8.6,13.8,16.6,20.6,24.2c1,1.1,3.9,1,5.8,0.6
		c32.7-7,65.5-6.5,98.3-1.4c0.3,0.1,0.6,0.5,1.5,1.2c-4.6,1.3-8.9,2.3-13,3.6c-15.4,4.7-29.9,11.2-41.4,22.8
		c-10.2,10.3-15,22.7-14.2,38.3c51.8,2.2,102.7,2.1,151.4-19c-7.9,4-15.6,8.6-23.8,12c-24.7,10.3-50.9,14.5-77.4,16.2
		c-39,2.5-77.6,0.5-115.1-11.3C221.7,299.5,211.4,294.5,200.1,289.9z M173.2,363.8c-3.1-10.4-6.8-20.4-8.9-30.7
		c-2.2-10.3-2.7-20.9-4.2-31.3c-0.2-1.6-1.3-4.1-2.5-4.5c-15.4-4.8-27.6,1.4-27.2,17.6C130.9,334.8,153.2,360.3,173.2,363.8z
		 M212.4,224.8c-7.6,5.1-15.2,8.9-21.3,14.5c-10.1,9.2-8.7,23.1,1.7,31.2c13-7,25.9-13.8,39.2-20.9
		C225.7,241.7,219.5,233.8,212.4,224.8z"/>
	<path fill="#D51D4A" d="M219.7,318.4c69.3,19.1,137.7,20.9,206.9-5.9c-11.3,12.9-21.7,24.5-35,32.2c-26,15.1-45.4,35.7-58.6,62.6
		c-6,12.2-14.9,22.7-26.8,30c-16.2,10-32.3,9.3-47.9-1.2c-14-9.4-23.5-22.6-29.6-38.2c-9.4-24.3-13.8-49.2-10.1-75.3
		C218.8,321.5,219.2,320.5,219.7,318.4z"/>
	<path fill="#D51D4A" d="M112.9,368c-4.6-3.3-8.3-5.8-11.8-8.6c-11.7-9.6-19.9-21.4-22.6-36.5c-3.4-18.9,6.3-35.6,25-40
		c10.3-2.4,21.2-2,31.8-2.9c0,0.5,0.1,1.1,0.1,1.6c-8.7,2-17.8,3.1-26.1,6.2c-18,6.6-24.6,21-17.5,38.8c3,7.6,7.8,15.2,13.7,20.7
		c9.6,8.8,20.8,16,31.6,23.5c14.7,10.2,29.6,20.2,40.1,35.2c2.1,2.9,4,6,5.8,8.8c-8.8-8.1-17-17.2-26.8-24.2
		c-27.6-19.6-22.8-17.9-48.1-1.6c-9.3,6-17.7,13.9-24.9,22.3c-16,18.7-16.6,40.9-3,61.5c11,16.6,26.4,28.2,43.5,37.9
		c32.4,18.4,67.6,28.9,104.2,34.8c55,8.9,109.9,7.6,164.4-3.7c0.4-0.1,0.8,0.1,1.6,1.4c-13.9,3.8-27.7,8.2-41.8,11.2
		c-78.2,16.5-154.6,10.5-228.7-20.1c-26.5-11-50.9-25.5-69.7-47.9c-13.4-16-20.6-34-14.7-55c3.8-13.5,12-24.6,23.1-32.8
		c12.4-9.1,26-16.8,39.1-24.9C104.6,371.5,108.2,370.2,112.9,368z"/>
	<path fill="#D51D4A" d="M278.4,23.2c-1.1,18.4-2.9,36.7-3.2,55.1c-0.2,13,3.5,25.5,9.7,37.2c9.9,18.7,21,24.4,41.3,18.8
		c20.1-5.5,39.7-12.8,59.6-19.1c15.3-4.8,30.7-8.4,47-6c27.5,4,44.9,23.2,45.2,51c0.4,34-14.6,60.6-41.4,80.6
		c-23.8,17.7-51.3,26.8-81.1,32.8c11.2-4.9,21.5-8.9,31.3-13.8c24.4-12.3,45.9-28.1,59.5-52.7c5-9.2,8.1-18.9,7.9-29.6
		c-0.3-22.7-18-39-40.5-35.2c-14.7,2.5-28.9,8.3-43.5,11.9c-16.2,4.1-32.5,9-49,10.6c-25.8,2.6-43.8-10.5-52.2-35
		c-6.4-18.6-6.6-37.8-3.3-56.8c2.9-16.8,7.9-33.3,11.9-50C277.9,23,278.2,23.1,278.4,23.2z"/>
	<path fill="#D51D4A" d="M443.2,310.5c2.5,8.9,5.6,17.8,7.4,26.9c1.4,7.1,1.5,14.6,1.3,21.9c-0.1,4.5,0.8,6.7,5.2,8.8
		c17.1,8,32.9,18.1,45.3,32.6c20.6,24,21.6,52.5,2,77.4c-19.1,24.3-45.2,36.5-74.8,42.4c-2.5,0.5-5.1,0.8-7.8,0.4
		c2.1-0.9,4.1-1.7,6.2-2.6c19.6-7.9,37.5-18.5,51.2-35c21.4-25.8,20.8-54.9-2.3-79.2c-7.9-8.3-17.5-14.9-26.9-22.7
		c-26.2,87.5-100.5,96.2-153.3,82.4c42.5,1.9,83.2-2,113.5-36.8c29.2-33.4,35.3-73.2,30.5-115.8
		C441.5,310.9,442.3,310.7,443.2,310.5z"/>
	<path fill="#D51D4A" d="M166.6,413.4c0.3,15.6,3,30.4,10.5,44.1c11.8,21.5,31.1,33.4,53.4,41.2c19.6,6.9,40,10,60.6,11.7
		c8.8,0.7,17.6,1.1,26.4,1.8c-35.1,2.7-70.1,3.5-104.2-7.5c-42.1-13.6-58.4-43-48.2-86.1C165.6,416.9,166.1,415.2,166.6,413.4z"/>
	<path fill="#FFFFFF" d="M173.2,363.8c-20-3.5-42.3-29-42.8-48.9c-0.4-16.2,11.8-22.4,27.2-17.6c1.2,0.4,2.2,2.9,2.5,4.5
		c1.5,10.4,2,21,4.2,31.3C166.5,343.4,170.1,353.4,173.2,363.8z"/>
	<path fill="#FFFFFF" d="M212.4,224.8c7.1,9,13.3,16.9,19.6,24.8c-13.3,7.1-26.1,13.9-39.2,20.9c-10.4-8.1-11.9-22-1.7-31.2
		C197.2,233.8,204.8,229.9,212.4,224.8z"/>
</g>
</svg>
