
<svg version="1.0" id="Layer_1" xmlns="http://www.w3.org/2000/svg" xmlns:xlink="http://www.w3.org/1999/xlink" x="0px" y="0px"
	 viewBox="0 0 531.8 459.4" enable-background="new 0 0 531.8 459.4" xml:space="preserve">
<g>
	<path fill="#D51E4A" d="M432.7,52.4v26.2h26.2h26.2V52.4V26.2h-26.2h-26.2V52.4z"/>
	<path fill="#D51E4A" d="M358.8,77.2v25.5H385h26.2V77.2V51.7H385h-26.2V77.2z"/>
	<path d="M246.7,85.8c-21.6,5-40.3,16.1-60.5,35.9c-7.4,7.3-15,13.7-16.9,14.4c-2.4,0.9-6.2,0.8-12.8-0.5c-25.4-5.5-44.5-5-65.3,1.6
		C69.7,144,54.3,153.4,39.6,169c-11.3,11.8-19.1,24.5-24.7,39.6C-1.5,253.4,7.9,300,40,333.3c10.9,11.3,20.7,18.7,32.9,24.9
		c20.3,10.2,41.4,13.8,68.1,11.7c8.3-0.7,16.7-0.9,18.5-0.4c1.7,0.4,8.1,5.4,14.1,10.9c25.9,24.3,42.7,33.5,67.3,36.8
		c18,2.6,40.7-2.7,60.6-14.1c13.3-7.5,21.4-13.8,35.5-27.4c6-6,12.6-11.3,14.4-11.7c2-0.5,8.6,0.7,16.5,3
		c11.2,3.4,15.3,3.8,29.2,3.8c34.3-0.1,65.2-13.3,87.6-37.3c22.3-23.8,33.2-51.2,33-83.4c-0.1-19.1-3.1-31.8-11.2-48.8l-5.2-11
		h-26.5h-26.3l5,5.5c7,7.8,14.9,20.3,18.3,29.3c2.1,5.5,3.1,11.6,3.6,22.6c1.1,25.3-4.6,40.6-21,57.2c-28.7,29.3-64.5,33-101.6,10.7
		l-7.8-4.8l-5.5,6.6c-21.2,25.5-54,48.5-75.6,52.9c-12.5,2.6-27.9,1.2-37.2-3.4c-9.5-4.7-21.1-16.5-21.1-21.5c0-2.7,5.2-9,23.2-27.8
		c51.6-54.1,63-66.4,64.9-69.1c1.6-2.3,1.9-8.5,1.6-32.1l-0.4-29.4l-53.9,57.1c-64.2,67.8-68.6,72.1-81.4,78.3
		c-30.8,14.5-62.9,8.5-88.5-16.7c-15.4-15.2-21.1-28.2-22.3-51c-1.3-25.1,4-39.4,21.8-57.2c17.7-18,36.7-25.7,60.5-24.3
		c14.8,0.8,25,4.2,38.3,12.8l9.9,6.3l12.1-14.1c29.4-34.3,51.2-53.5,69.9-61.7c7.5-3.2,27-8.6,39.8-11c13-2.4,13.3-2.8,5-8.3
		C290,86.4,264.9,81.7,246.7,85.8z"/>
	<path fill="#D51E4A" d="M325.2,112.8v12.8h12.1h12.1v-12.8v-12.8h-12.1h-12.1V112.8z"/>
	<path fill="#D51E4A" d="M447.5,135.7v35.6h35.6h35.6v-35.6v-35.6h-35.6h-35.6V135.7z"/>
	<path fill="#D51E4A" d="M383,151.1v17.5h16.8h16.8v-17.5v-17.5h-16.8H383V151.1z"/>
	<path fill="#D51E4A" d="M340,155.8v12.8h12.1h12.1v-12.8v-12.8h-12.1H340V155.8z"/>
	<path fill="#D51E4A" d="M315.8,206.2v32.2h32.2h32.2v-32.2V174h-32.2h-32.2V206.2z"/>
</g>
</svg>
